# xmcd
#
# Track frame offsets:
#	150
#	17253
#	28776
#	40280
#	51249
#	64194
#	74340
#	90058
#	98582
#	108792
#	122701
#	139247
#	151818
#	166727
#	179365
#	192510
#	210052
#	225155
#	236999
#	249935
#	264109
#
# Disc length: 3805 seconds
#
# Revision: 1
# Processed by: cddbd v1.5.2PL0 Copyright (c) Steve Scherf et al.
# Submitted via: audiograbber 1.83.01
#
DISCID=fe0edb15
DTITLE=Johnny Cash  - Ring of Fire- The Legend of Johnny Cash
DYEAR=2005
DGENRE=Country
TTITLE0=A Boy Name Sue (Live)
TTITLE1=A Thing Called Love
TTITLE2=Big River
TTITLE3=Cry! Cry! Cry!
TTITLE4=Folsom Prison Blues
TTITLE5=Get Rhythm
TTITLE6=Give My Love to Rose
TTITLE7=Guess Things Happen That Way
TTITLE8=Hey Porter
TTITLE9=Highwayman
TTITLE10=Hurt
TTITLE11=I Walk the Line
TTITLE12=I've Been Everywhere
TTITLE13=Jackson
TTITLE14=Man in Black
TTITLE15=One
TTITLE16=Personal Jesus
TTITLE17=Ring of Fire
TTITLE18=Rusty Cage
TTITLE19=San Quentin (Live)
TTITLE20=The Wanderer (U2 Starring Johnny Cash)
EXTD=
EXTT0=
EXTT1=
EXTT2=
EXTT3=
EXTT4=
EXTT5=
EXTT6=
EXTT7=
EXTT8=
EXTT9=
EXTT10=
EXTT11=
EXTT12=
EXTT13=
EXTT14=
EXTT15=
EXTT16=
EXTT17=
EXTT18=
EXTT19=
EXTT20=
PLAYORDER=
